<svg xmlns="http://www.w3.org/2000/svg" width="100" height="100" viewBox="0 0 100 100">
    <path fill="#ae1f00" d="M100 50c0 27.614-22.386 50-50 50S0 77.614 0 50 22.386 0 50 0a50 50 0 0 1 50 50z"/>
    <path fill="#ffffff" d="M33.595 44.979c-1.185-1.383-1.105-3.445.183-4.733s3.35-1.368 4.733-.183l8.002 7.897V21.514A3.49 3.49 0 0 1 50 18.027a3.49 3.49 0 0 1 3.487 3.487V47.96l8.002-7.984a3.51 3.51 0 0 1 4.96.044 3.51 3.51 0 0 1-.044 4.96L52.458 58.926a3.12 3.12 0 0 1-.54.436h-.139l-.453.244h-.209l-.436.139c-.46.094-.935.094-1.395 0l-.436-.139h-.209l-.384-.244h-.139a3.12 3.12 0 0 1-.54-.436L33.595 44.979zm40.811 12.203a3.49 3.49 0 0 0-3.487 3.487l-.139 5.23h-3.347-34.867-3.347c-.139-1.046-.139-3.121-.139-5.23a3.49 3.49 0 0 0-3.487-3.487 3.49 3.49 0 0 0-3.487 3.487c0 11.07 1.987 12.203 10.46 12.203h34.867c8.473 0 10.46-1.133 10.46-12.203a3.49 3.49 0 0 0-3.487-3.487z"/>
    <path fill="#ffe9b3" d="M74.407 57.183a3.49 3.49 0 0 0-3.487 3.487l-.139 5.23h-3.347H50v6.973h17.433c8.473 0 10.46-1.133 10.46-12.203a3.49 3.49 0 0 0-3.487-3.487zm-23.71 2.615l.436-.139h.209l.453-.244h.139a3.12 3.12 0 0 0 .54-.436l13.947-13.947c1.185-1.383 1.105-3.445-.183-4.733s-3.35-1.368-4.733-.183l-8.019 7.845V21.514A3.49 3.49 0 0 0 50 18.027v41.84a3.14 3.14 0 0 0 .697-.07h0z"/>
</svg>
